<svg xmlns="http://www.w3.org/2000/svg" width="67" height="67" viewBox="0 0 67 67">
    <g fill="none" fill-rule="evenodd" transform="translate(.44)">
        <path d="M0 0h66.508v66.215H0z"/>
        <ellipse cx="33.254" cy="33.107" stroke="#5A4BBE" stroke-width="3.024" rx="31.742" ry="31.595"/>
        <path fill="#5A4BBE" d="M46.142 25.35a6.79 6.79 0 0 0 2.861-3.78 12.661 12.661 0 0 1-4.136 1.658c-1.185-1.33-2.878-2.16-4.753-2.16-3.596 0-6.51 3.062-6.51 6.838 0 .536.055 1.058.166 1.557-5.41-.285-10.208-3.005-13.422-7.145a7.084 7.084 0 0 0-.881 3.44c0 2.37 1.15 4.464 2.897 5.693a6.3 6.3 0 0 1-2.951-.855v.084c0 3.314 2.243 6.078 5.226 6.704-.548.16-1.122.241-1.718.241-.419 0-.829-.041-1.224-.121.827 2.715 3.233 4.695 6.083 4.748-2.23 1.835-5.038 2.927-8.088 2.927-.525 0-1.045-.03-1.553-.094 2.882 1.939 6.304 3.071 9.982 3.071 11.98 0 18.527-10.42 18.527-19.456 0-.297-.003-.593-.016-.884a13.575 13.575 0 0 0 3.249-3.541 12.523 12.523 0 0 1-3.74 1.076z"/>
    </g>
</svg>
