<svg xmlns="http://www.w3.org/2000/svg" width="1417" height="996" viewBox="0 0 1417 996">
    <g fill="none" fill-rule="evenodd">
        <g fill="#FFF" opacity=".86">
            <path d="M1152.314 535.613l11.59 7.818 7.82-11.593-11.59-7.818z" opacity=".84"/>
            <path d="M1363.03 468.578l-10.074-11.188-11.192 10.077 10.075 11.189z" opacity=".97"/>
            <path d="M391.047 415.933l1.623-3.965 2.16 3.701 4.274.32-2.852 3.198 1.018 4.163-3.923-1.725-3.645 2.253.428-4.264-3.27-2.77z" opacity=".78"/>
            <path d="M426.014 645.084l12.225-9.745 2.907 13.675z" opacity=".85"/>
            <path d="M848.394 687.881l-6.961-13.998-8.414 11.165z" opacity=".88"/>
            <path d="M1406.429 1006.521l12.577-9.286-12.457-6.347z" opacity=".84"/>
        </g>
        <g fill="#C6C6C6" opacity=".78" transform="rotate(58 603.117 939.585)">
            <ellipse cx="7.496" cy="282.029" opacity=".93" rx="5.275" ry="5.277" transform="scale(-1 1) rotate(-70 0 292.734)"/>
            <path d="M764.681 615.051l-3.698 10.742-10.746-3.7 3.699-10.742z" opacity=".77"/>
            <path d="M744.588 537.762l-4.624-9.481 9.485-4.626 4.624 9.481z" opacity=".79"/>
            <path d="M329.114 124.643l-8.425 6.348-6.35-8.428 8.424-6.348z" opacity=".84"/>
            <path d="M167.679 82.447l7.15-8.83 8.832 7.153-7.15 8.829z" opacity=".97"/>
            <path d="M487.827 623.483l-2.379-.473 1.824-1.6-.284-2.41 2.084 1.24 2.203-1.015-.535 2.366 1.646 1.781-2.415.223-1.187 2.116z" opacity=".92"/>
            <path d="M239.829 767.269l2.344 1.814.014-2.965 2.45-1.67-2.815-.928-.83-2.847-1.754 2.391-2.962-.09 1.73 2.407-1 2.791z" opacity=".84"/>
            <path d="M880.745 178.455l-9.598-6.86-1.65 10.42z" opacity=".85"/>
            <path d="M510.789 563.798l10.16 5.998.735-10.524z" opacity=".92"/>
            <path d="M564.147 227.39l4.693-10.825 6.781 8.082z" opacity=".88"/>
            <path d="M156.22 489.56l-9.844-6.503 9.136-5.274z" opacity=".84"/>
        </g>
        <g fill="#FFF" opacity=".71">
            <path d="M633.298 247.828l-10.733 13.253 13.26 10.738 10.732-13.254z" opacity=".77"/>
            <path d="M747.686 211.92l15.75-1.656-1.657-15.756-15.749 1.655z" opacity=".79"/>
            <path d="M842.791 606.975l2.495 2.651.587-3.594 3.292-1.555-3.235-1.668-.46-3.612-2.587 2.563-3.576-.677 1.637 3.252-1.75 3.193zM900.516 530.261l-15.718-8.163 12.812-9.308z" opacity=".92"/>
            <path d="M1286.377 194.701l10.045-14.587-15.681-2.204z" opacity=".88"/>
            <path d="M1277.08 922.568l16.11 7.36-.552-15.826z" opacity=".84"/>
        </g>
        <g fill="#D6D4D3" opacity=".86">
            <path d="M824.1 254.048l3.596 14.425 14.428-3.597-3.597-14.426z" opacity=".77"/>
            <path d="M859.104 155.612l7.11-11.834-11.835-7.11-7.11 11.832z" opacity=".79"/>
            <path d="M1184.057 296.616l3.155-.347-2.194-2.293.645-3.107-2.859 1.378-2.756-1.575.427 3.145-2.348 2.135 3.123.565 1.304 2.894zM1160.927 216.208l-13.925 6.66.241-13.803z" opacity=".92"/>
        </g>
        <g fill="#D8C3C0" opacity=".73">
            <path d="M462.495 369.636l-13.083-2.072-2.073 13.086 13.083 2.072z" opacity=".77"/>
            <path d="M531.052 432.62l7.23 9.95 9.953-7.23-7.23-9.952z" opacity=".79"/>
            <path d="M1164.079 566.568l2.255 3.022-3.77-.048-2.178 3.078-1.12-3.6-3.6-1.12 3.079-2.176-.048-3.77 3.022 2.255 3.57-1.21z" opacity=".78"/>
            <path d="M302.273 650.029l-.815 2.707 2.645-1 2.324 1.61-.134-2.824 2.25-1.712-2.728-.745-.933-2.669-1.551 2.364-2.828.063z" opacity=".92"/>
            <path d="M18.521 826.636l-.584-3.406 3.059 1.608 3.06-1.608-.585 3.406 2.475 2.412-3.42.497-1.53 3.099-1.53-3.1-3.42-.496z" opacity=".84"/>
            <path d="M975.43 489.107l1.81 13.635-11.63-4.005z" opacity=".85"/>
            <path d="M376.279 659.057l-.615-13.74 11.237 5.002z" opacity=".92"/>
            <path d="M751.764 788.247l13.711 1.093-4.607-11.404z" opacity=".88"/>
        </g>
        <g fill="#FFE6E2" opacity=".88" transform="rotate(174 625.409 531.406)">
            <ellipse cx="9.597" cy="398.979" opacity=".93" rx="7.457" ry="7.457" transform="scale(-1 1) rotate(-70 0 412.686)"/>
            <path d="M1080.04 869.608l-5.229 15.186-15.186-5.23 5.229-15.185z" opacity=".77"/>
            <path d="M1051.639 760.388l-6.538-13.405 13.405-6.538 6.538 13.405z" opacity=".79"/>
            <path d="M464.271 176.557l-11.91 8.976-8.976-11.91 11.91-8.976z" opacity=".84"/>
            <path d="M236.052 116.93l10.107-12.482 12.482 10.108-10.107 12.481z" opacity=".97"/>
            <path d="M688.65 881.527l-3.363-.67 2.577-2.26-.402-3.405 2.947 1.752 3.114-1.435-.756 3.344 2.327 2.518-3.414.315-1.676 2.99z" opacity=".92"/>
            <path d="M1244.121 252.609l-13.563-9.699-2.333 14.73z" opacity=".85"/>
            <path d="M721.113 797.179l14.357 8.479 1.04-14.878z" opacity=".92"/>
            <path d="M796.546 321.763l6.631-15.299 9.587 11.425z"/>
            <path d="M219.85 692.264l-13.915-9.187 12.916-7.457z" opacity=".84"/>
        </g>
        <g fill="#FFF" opacity=".83" transform="scale(1 -1) rotate(75 1254.407 211.324)">
            <ellipse cx="9.718" cy="365.617" opacity=".93" rx="6.838" ry="6.835" transform="scale(-1 1) rotate(-70 0 379.496)"/>
            <path d="M426.679 161.746l-10.923 8.23-8.227-10.917 10.923-8.23z" opacity=".84"/>
            <path d="M217.394 107.096l9.27-11.446 11.44 9.264-9.27 11.447z" opacity=".97"/>
            <path d="M632.45 807.916l-3.083-.615 2.362-2.072-.37-3.122 2.703 1.607 2.854-1.314-.692 3.065 2.134 2.31-3.13.287-1.536 2.742z" opacity=".92"/>
            <path d="M310.93 994.167l3.038 2.35.018-3.84 3.175-2.162-3.649-1.204-1.076-3.687-2.273 3.096-3.841-.116 2.244 3.117-1.297 3.615z" opacity=".84"/>
            <path d="M662.223 730.603l13.16 7.775.954-13.643z" opacity=".92"/>
            <path d="M731.398 294.841l6.076-14.025 8.792 10.477z" opacity=".88"/>
            <path d="M202.53 634.44l-12.757-8.42 11.845-6.838z" opacity=".84"/>
        </g>
        <g fill="#FFF" opacity=".73">
            <path d="M111.922 329.308l-11.993-6.11 6.108-11.989 11.993 6.11z" opacity=".77"/>
            <path d="M205.84 318.476l11.886-3.862 3.86 11.883-11.886 3.862z" opacity=".79"/>
            <path d="M805.882 586.394l3.658-1.137-3.127-2.211.05-3.83-3.07 2.291-3.627-1.229 1.23 3.627-2.292 3.07 3.83-.05 2.21 3.127z" opacity=".78"/>
            <path d="M147.678 3.117l.949-2.712 1.575 2.402 2.872.063-1.798 2.24.827 2.751-2.686-1.016-2.361 1.637.137-2.87-2.286-1.738z" opacity=".92"/>
            <path d="M604.651 537.413l9.63-10.12-11.953-3.655z" opacity=".85"/>
            <path d="M213.868 39.893l-8.71 10.922 12.225 2.599z" opacity=".92"/>
            <path d="M599.48 157.923l11.921 7.285-10.599 6.623z" opacity=".88"/>
        </g>
        <g fill="#FFF" opacity=".78">
            <path d="M664.41 623.714l8.118 11.174-11.171 8.116-8.118-11.173z" opacity=".77"/>
            <path d="M573.484 589.86l-12.667-2.006 2.006-12.665 12.667 2.007z" opacity=".79"/>
            <path d="M149.619 65.325l-3.874-.664 1.828 3.479-1.829 3.478 3.874-.664 2.744 2.814.565-3.89 3.525-1.739-3.525-1.74-.565-3.888z"/>
            <path d="M479.758 905.295l-2.13 2.038-.322-2.93-2.597-1.396 2.688-1.211.526-2.9 1.982 2.18 2.922-.396-1.463 2.56 1.28 2.654z" opacity=".92"/>
            <path d="M310.806 203.867l-13.52 4.769 9.225 8.909z" opacity=".85"/>
            <path d="M436.366 840.83l13.053-5.928-9.967-8.071z" opacity=".92"/>
            <path d="M138.749 553.249l-7.506-12.215 12.776-1.118z" opacity=".88"/>
        </g>
        <g opacity=".92" transform="scale(-1 1) rotate(-56 182.775 1288.45)">
            <ellipse cx="9.63" cy="400.079" fill="#CE6D5E" opacity=".93" rx="7.48" ry="7.477" transform="scale(-1 1) rotate(-70 0 413.833)"/>
            <path fill="#FBEEFF" d="M465.726 177.045l-11.949 9.004-9-11.944 11.949-9.004z" opacity=".84"/>
            <path fill="#FBEEFF" d="M236.796 117.257l10.139-12.521 12.516 10.135-10.139 12.52z" opacity=".97"/>
            <path fill="#FBEEFF" d="M799.044 322.65l6.648-15.343 9.617 11.46z" opacity=".88"/>
            <path fill="#FBEEFF" d="M220.54 694.17l-13.956-9.21 12.956-7.48z" opacity=".84"/>
        </g>
        <g opacity=".84" transform="scale(-1 1) rotate(-58 203.89 988.04)">
            <ellipse cx="10.125" cy="381.015" fill="#CE6D5E" opacity=".93" rx="7.124" ry="7.122" transform="scale(-1 1) rotate(-70 0 395.475)"/>
            <path fill="#D2D2D2" d="M444.518 168.582l-11.38 8.575-8.572-11.376 11.38-8.575z"/>
            <path fill="#D2D2D2" d="M226.482 111.635l9.657-11.925 11.921 9.654-9.657 11.925z" opacity=".97"/>
            <path fill="#D2D2D2" d="M761.976 307.267l6.332-14.614 9.16 10.915z" opacity=".88"/>
            <path fill="#D2D2D2" d="M210.999 661.128l-13.292-8.774 12.34-7.124z"/>
        </g>
        <g fill="#FFF" opacity=".74">
            <path d="M395.71 93.305l-2.463 1.294.47-2.74-1.992-1.942 2.753-.4 1.231-2.493 1.231 2.494 2.753.4-1.992 1.94.47 2.741z" opacity=".92"/>
            <path d="M278.355 400.436l3.399-.076-2.127-2.65.98-3.256-3.18 1.204-2.794-1.937.162 3.396-2.706 2.058 3.28.895 1.12 3.208z" opacity=".84"/>
            <path d="M373.122 23.553l13.38-1.982-6.94-9.913z" opacity=".92"/>
            <path d="M3.468 213.384l-13.463 1.313 4.337-11.297z" opacity=".84"/>
        </g>
    </g>
</svg>
