<svg xmlns="http://www.w3.org/2000/svg" width="68" height="67" viewBox="0 0 68 67">
    <g fill="none" fill-rule="evenodd" transform="translate(.88)">
        <path d="M0 0h66.508v66.215H0z"/>
        <ellipse cx="33.254" cy="33.107" stroke="#594ABB" stroke-width="3.024" rx="31.742" ry="31.595"/>
        <path fill="#594ABB" d="M33.254 19.536c4.44 0 4.965.017 6.719.097 1.62.074 2.501.343 3.087.57.776.3 1.33.659 1.912 1.238.582.58.942 1.13 1.244 1.904.227.583.498 1.46.572 3.073.08 1.746.097 2.27.097 6.69s-.017 4.943-.097 6.689c-.074 1.614-.345 2.49-.572 3.073a5.126 5.126 0 0 1-1.244 1.904 5.153 5.153 0 0 1-1.912 1.238c-.586.227-1.466.496-3.087.57-1.753.08-2.28.096-6.72.096-4.439 0-4.965-.016-6.718-.096-1.62-.074-2.501-.343-3.087-.57a5.153 5.153 0 0 1-1.912-1.238 5.126 5.126 0 0 1-1.244-1.904c-.227-.583-.498-1.46-.572-3.073-.08-1.746-.097-2.27-.097-6.69s.017-4.943.097-6.689c.074-1.614.345-2.49.572-3.073a5.126 5.126 0 0 1 1.244-1.904 5.154 5.154 0 0 1 1.912-1.238c.586-.227 1.466-.496 3.087-.57 1.753-.08 2.28-.097 6.719-.097m0-2.982c4.516 0 5.082.019 6.855.1 1.77.08 2.979.36 4.036.769 1.094.423 2.02.989 2.945 1.91a8.11 8.11 0 0 1 1.918 2.931c.411 1.053.692 2.256.773 4.018.08 1.766.1 2.33.1 6.825 0 4.496-.02 5.06-.1 6.825-.08 1.763-.362 2.966-.773 4.019a8.11 8.11 0 0 1-1.918 2.932 8.154 8.154 0 0 1-2.945 1.91c-1.057.408-2.266.688-4.036.769-1.773.08-2.34.1-6.855.1-4.516 0-5.082-.02-6.855-.1-1.77-.08-2.979-.36-4.036-.77a8.154 8.154 0 0 1-2.945-1.91 8.111 8.111 0 0 1-1.918-2.931c-.411-1.053-.692-2.256-.773-4.019-.08-1.765-.1-2.329-.1-6.825 0-4.495.02-5.059.1-6.825.08-1.762.362-2.965.773-4.018a8.11 8.11 0 0 1 1.918-2.932 8.154 8.154 0 0 1 2.945-1.91c1.057-.408 2.266-.688 4.036-.769 1.773-.08 2.34-.1 6.855-.1zm.033 8.08c-4.719 0-8.544 3.808-8.544 8.506s3.825 8.507 8.544 8.507 8.544-3.809 8.544-8.507c0-4.698-3.825-8.507-8.544-8.507zm0 14.028c-3.063 0-5.546-2.472-5.546-5.522 0-3.05 2.483-5.522 5.546-5.522s5.546 2.473 5.546 5.522c0 3.05-2.483 5.522-5.546 5.522zM44.075 24.24c0-1.088-.886-1.97-1.98-1.97-1.093 0-1.98.882-1.98 1.97 0 1.089.887 1.971 1.98 1.971 1.094 0 1.98-.882 1.98-1.97z"/>
    </g>
</svg>
